On Jan. 15th, 2011, \\\"Zeitgeist: Moving Forward\\\" was released theatrically to sold out crowds in 60 countries; 31 languages; 295 cities and 341 Venues. It has been noted as the largest non-profit independent film release in history. 

This is a non-commercial work and is available online for free viewing and no restrictions apply to uploading/download/posting/linking - as long as no money is exchanged. 

A Free DVD Torrent of the full 2 hr and 42 min film in 30 languages is also made available through the main website [below], with instructions on how one can download and burn the movie to DVD themselves. His other films are also freely available in this format.

Website:
www.zeitgeistmovingforward.com
www.zeitgeistmovie.com

Release Map:  
http://zeitgeistmovingforward.com/zmap

$5 DVD:   
http://zeitgeistmovingforward.com/dvd

Movement:
www.thezeitgeistmovement.com    


Info:

Zeitgeist III Moving Forward 2011.mp4

Format                           : MPEG-4
Format profile                   : Base Media
Codec ID                         : isom
File size                        : 1.06 GiB
Duration                         : 2h 41mn
Overall bit rate                 : 936 Kbps
Encoded date                     : UTC 1970-01-01 00:00:00
Tagged date                      : UTC 1970-01-01 00:00:00
Writing application              : Lavf52.40.0

Video
ID                               : 1
Format                           : AVC
Format/Info                      : Advanced Video Codec
Format profile                   : High@L3.0
Format settings, CABAC           : Yes
Format settings, ReFrames        : 3 frames
Codec ID                         : avc1
Codec ID/Info                    : Advanced Video Coding
Duration                         : 2h 41mn
Bit rate mode                    : Variable
Bit rate                         : 800 Kbps
Width                            : 854 pixels
Height                           : 478 pixels
Display aspect ratio             : 16:9
Frame rate mode                  : Variable
Frame rate                       : 24.952 fps
Minimum frame rate               : 4.167 fps
Maximum frame rate               : 25.000 fps
Original frame rate              : 25.000 fps
Resolution                       : 24 bits
Colorimetry                      : 4:2:0
Scan type                        : Progressive
Bits/(Pixel*Frame)               : 0.079
Stream size                      : 929 MiB (86%)
Writing library                  : x264 core 79

Language                         : Russian

Audio
ID                               : 2
Format                           : AAC
Format/Info                      : Advanced Audio Codec
Format version                   : Version 4
Format profile                   : LC
Format settings, SBR             : No
Codec ID                         : 40
Duration                         : 2h 41mn
Bit rate mode                    : Variable
Bit rate                         : 127 Kbps
Channel(s)                       : 2 channels
Channel positions                : L R
Sampling rate                    : 44.1 KHz
Resolution                       : 16 bits
Stream size                      : 147 MiB (14%)
Language                         : Russian